<?xml version="1.0" standalone="no"?>
<!DOCTYPE svg PUBLIC "-//W3C//DTD SVG 20010904//EN"
 "http://www.w3.org/TR/2001/REC-SVG-20010904/DTD/svg10.dtd">
<svg version="1.0" xmlns="http://www.w3.org/2000/svg"
 width="1270.000000pt" height="935.000000pt" viewBox="0 0 1270.000000 935.000000"
 preserveAspectRatio="xMidYMid meet">

<g transform="translate(0.000000,935.000000) scale(0.100000,-0.100000)"
fill="#000000" stroke="none">
<path d="M2279 8918 c-24 -18 -32 -19 -79 -9 -61 13 -114 1 -130 -29 -6 -10
-10 -37 -10 -60 0 -23 -7 -63 -16 -90 -14 -44 -14 -53 0 -110 9 -34 16 -70 16
-81 0 -32 -27 -33 -62 -4 -29 25 -37 27 -88 21 -72 -9 -89 -9 -123 -1 -23 6
-32 2 -60 -27 -17 -20 -57 -57 -87 -83 -80 -71 -140 -152 -140 -190 0 -17 -6
-40 -14 -50 -13 -18 -16 -18 -94 13 -149 59 -239 43 -352 -63 -30 -28 -71 -61
-92 -73 -20 -13 -51 -39 -70 -60 -47 -52 -124 -198 -132 -250 -4 -24 -16 -63
-28 -85 -19 -37 -20 -48 -10 -94 12 -60 7 -85 -34 -163 -27 -51 -29 -65 -33
-183 -5 -182 3 -228 45 -278 40 -48 41 -57 13 -93 -12 -15 -29 -48 -39 -75 -9
-27 -36 -73 -58 -103 -29 -38 -46 -73 -57 -120 -8 -36 -29 -97 -46 -135 -27
-60 -30 -75 -24 -125 6 -48 3 -63 -13 -90 -30 -50 -37 -94 -18 -123 14 -22 24
-25 76 -25 72 0 77 -7 90 -120 5 -43 16 -93 25 -111 25 -47 45 -119 45 -161 0
-49 -40 -98 -81 -98 -39 0 -60 -35 -66 -113 -5 -56 -2 -69 27 -126 l31 -63
-19 -47 c-12 -29 -18 -60 -15 -86 4 -33 -4 -58 -41 -134 -55 -114 -62 -144
-44 -207 14 -50 24 -58 95 -85 41 -14 73 -65 73 -114 0 -32 -7 -45 -48 -84
-26 -25 -57 -54 -70 -63 -19 -16 -22 -27 -22 -98 0 -44 5 -100 12 -124 l12
-45 -53 -55 c-28 -31 -58 -71 -66 -91 -24 -56 -19 -128 14 -193 15 -31 34 -74
40 -94 7 -20 25 -53 41 -73 23 -28 27 -43 23 -69 -4 -23 2 -45 18 -75 13 -24
35 -64 49 -90 18 -34 32 -47 51 -49 30 -4 44 10 56 58 10 38 61 80 97 80 12 0
39 -18 61 -40 28 -28 47 -40 68 -40 65 0 84 28 117 175 13 55 27 117 32 139
15 62 47 86 112 86 64 0 178 34 201 60 9 10 19 35 22 56 7 46 19 64 42 64 44
0 121 -132 121 -208 0 -89 52 -227 125 -334 24 -34 37 -68 45 -118 9 -55 20
-81 46 -113 54 -68 66 -96 91 -211 25 -118 40 -151 80 -169 28 -12 73 -102 73
-146 0 -14 9 -39 20 -56 26 -39 25 -88 -1 -135 -22 -38 -34 -47 -100 -74 -47
-18 -113 -78 -129 -116 -17 -40 4 -72 70 -105 67 -34 119 -33 261 7 32 9 41 7
68 -13 29 -21 34 -22 69 -9 20 7 57 12 81 11 35 -2 53 5 95 33 41 28 67 36
136 46 133 18 132 17 155 85 19 56 26 65 110 130 50 38 122 101 160 140 39 40
80 77 92 83 26 14 102 16 135 3 13 -5 79 -57 148 -116 151 -130 224 -167 485
-250 180 -57 180 -57 275 -51 52 3 129 14 170 25 101 25 110 19 132 -89 10
-45 21 -87 27 -94 19 -23 79 -184 95 -253 9 -40 16 -104 16 -142 0 -64 4 -78
45 -156 24 -47 58 -105 75 -129 74 -109 477 -790 531 -899 33 -66 83 -152 111
-190 47 -64 59 -73 137 -109 89 -41 126 -47 174 -29 16 6 42 11 59 11 38 0 92
55 142 145 31 55 42 65 118 107 109 61 203 98 247 98 20 0 47 7 60 16 12 9 48
69 80 133 63 128 107 202 128 214 7 4 22 26 33 47 11 21 28 41 38 44 10 3 39
32 66 63 46 55 48 60 43 106 -10 108 22 175 106 219 21 10 46 33 55 50 27 49
61 86 108 119 24 16 55 50 70 75 14 24 34 49 44 54 25 14 247 13 351 -1 90
-12 136 -31 212 -87 27 -19 66 -41 88 -49 37 -12 46 -11 146 22 91 30 119 35
202 35 53 0 112 5 131 11 19 7 109 14 200 18 l166 6 58 35 c69 41 88 69 111
159 9 36 29 86 45 111 45 71 110 254 125 355 8 49 34 164 58 255 25 91 48 183
51 204 10 52 44 123 62 130 25 10 53 -12 88 -67 40 -62 130 -263 182 -402 52
-142 48 -139 169 -132 55 3 117 13 137 21 21 9 54 16 75 16 55 0 183 26 218
44 18 10 56 16 94 16 45 0 73 6 95 19 17 11 58 29 90 42 33 12 79 39 102 61
40 37 48 40 126 48 46 4 103 15 127 24 24 9 52 16 63 16 38 0 133 -61 308
-198 190 -149 244 -211 291 -336 31 -81 62 -116 104 -116 49 0 64 8 85 49 31
58 201 227 247 246 49 20 56 35 78 165 23 133 32 157 86 227 59 78 66 100 74
253 7 141 6 139 102 247 47 52 76 75 107 86 95 32 209 127 226 186 5 20 10 77
10 128 0 83 5 106 46 230 43 127 47 147 50 253 2 63 9 176 15 251 18 204 -9
368 -81 495 -30 52 -180 214 -199 214 -18 0 -72 53 -90 89 -10 20 -24 63 -31
96 -7 33 -18 72 -26 86 -7 14 -65 190 -129 390 -79 246 -123 370 -137 381 -11
10 -39 22 -61 28 -194 47 -457 135 -697 232 -135 55 -266 107 -292 115 l-47
16 -128 -47 c-103 -38 -152 -50 -253 -62 -69 -8 -150 -19 -180 -25 -30 -5
-138 -25 -239 -44 -101 -19 -194 -35 -206 -35 -12 0 -168 72 -346 159 -178 88
-407 193 -509 234 -102 41 -250 103 -330 136 -80 34 -155 61 -166 61 -36 0
-71 -37 -108 -115 -34 -72 -35 -77 -24 -126 11 -45 10 -53 -5 -64 -19 -13
-161 -23 -442 -30 -99 -2 -240 -7 -313 -11 -145 -7 -162 -13 -162 -64 0 -51
38 -224 59 -270 28 -61 26 -96 -9 -167 -46 -91 -290 -354 -449 -484 -31 -25
-71 -71 -93 -109 -22 -36 -49 -76 -61 -88 -22 -24 -143 -106 -229 -155 -25
-15 -62 -49 -82 -75 -28 -39 -53 -57 -128 -95 -167 -83 -480 -203 -668 -256
-75 -21 -292 -61 -332 -61 -11 0 -64 20 -117 44 -67 31 -114 46 -158 50 -60 5
-63 4 -125 -37 -87 -59 -109 -67 -181 -67 -143 0 -235 30 -339 112 -21 16 -65
40 -100 54 -68 26 -102 53 -125 99 -19 36 -31 45 -60 45 -50 0 -74 109 -33
150 25 25 56 13 66 -25 10 -39 31 -51 54 -30 30 27 26 75 -9 109 -16 16 -35
41 -42 57 -7 19 -21 31 -38 35 -58 11 -75 28 -100 94 -50 137 -36 198 50 209
43 6 44 7 43 41 0 19 -3 46 -5 60 -3 21 0 25 24 28 24 3 33 13 53 57 27 59 24
79 -17 101 -16 8 -39 28 -51 45 -12 16 -46 48 -75 70 -40 29 -55 49 -63 78
-14 55 -41 61 -86 22 -38 -34 -60 -38 -89 -18 -14 11 -16 21 -11 43 4 16 8 43
9 59 2 26 -2 30 -25 33 -15 2 -40 -4 -57 -12 -42 -22 -56 -20 -95 14 -38 34
-104 65 -157 75 -34 6 -40 3 -92 -49 -32 -31 -57 -60 -57 -66 0 -20 -41 -50
-69 -50 -33 0 -81 34 -81 57 0 9 -18 53 -41 99 -31 66 -50 90 -83 113 -24 17
-50 41 -59 55 -11 15 -33 30 -59 37 -64 16 -157 76 -158 100 0 3 16 22 35 42
40 41 43 55 17 87 -13 16 -32 24 -68 27 -43 5 -54 2 -82 -22 -18 -15 -38 -25
-45 -22 -7 3 -20 29 -30 60 -10 30 -23 60 -30 65 -7 6 -46 18 -87 26 -49 11
-86 25 -109 44 -20 15 -52 34 -71 42 -45 17 -60 36 -60 75 0 22 -9 40 -30 60
-35 33 -38 61 -11 107 11 18 23 58 27 88 8 65 25 93 78 131 52 39 79 38 97 -3
12 -28 21 -34 56 -39 49 -6 75 -27 110 -86 26 -46 24 -62 -17 -96 -20 -17 -21
-20 -5 -37 9 -10 31 -21 49 -24 18 -4 50 -21 72 -39 21 -18 58 -45 81 -60 33
-21 45 -36 54 -69 8 -30 26 -56 60 -88 42 -39 50 -52 55 -94 13 -88 69 -111
139 -56 21 17 46 30 57 30 64 0 132 94 144 198 8 72 2 81 -72 128 -30 19 -51
42 -65 74 -11 25 -29 61 -40 81 -23 43 -23 56 -5 89 76 140 142 250 162 271
13 14 24 37 24 52 0 24 -8 31 -62 56 -37 17 -82 48 -107 75 l-45 46 13 50 c11
44 11 54 -3 75 -9 14 -28 32 -42 42 -14 9 -37 34 -51 56 -23 36 -27 39 -56 31
-18 -4 -61 -6 -97 -5 -63 2 -66 1 -102 -36 -36 -37 -37 -40 -35 -108 3 -132
-56 -180 -111 -90 -15 24 -35 45 -44 45 -25 0 -62 -54 -94 -138 -38 -100 -60
-122 -119 -122 -96 0 -108 34 -44 130 47 69 58 123 40 193 -8 35 -7 56 5 102
8 32 17 84 21 115 5 55 5 58 -26 79 -37 27 -40 60 -10 110 l20 33 23 -21 c17
-16 35 -21 80 -21 62 0 106 -18 130 -52 23 -33 20 -44 -18 -66 -34 -20 -76
-88 -76 -123 0 -22 51 -42 88 -35 16 4 53 32 86 65 l57 57 4 158 c2 87 0 169
-5 182 -10 26 -95 137 -149 193 -19 20 -42 54 -52 77 -9 23 -29 60 -43 83 -30
47 -64 54 -107 19z"/>
<path d="M2844 8216 c-8 -32 3 -64 26 -76 16 -8 22 -6 35 14 9 14 15 37 13 53
-2 23 -8 29 -35 31 -27 3 -33 -1 -39 -22z"/>
<path d="M2412 8038 c-22 -22 -13 -56 23 -84 19 -14 42 -24 50 -20 24 9 18 58
-10 89 -28 29 -44 34 -63 15z"/>
</g>
</svg>
